<svg height="766" width="720" xmlns="http://www.w3.org/2000/svg">
<rect height="766" fill="#555" width="720"></rect>
<text fill="#7f7" font-family="Courier New" font-size="12" xml:space="preserve">
<tspan x="10" y="26">├── UNMET PEER DEPENDENCY grunt@&gt;=0.4.0</tspan>
<tspan x="10" y="42">└─┬ grunt-contrib-connect@1.0.2 </tspan>
<tspan x="10" y="58">  ├── async@1.5.2 </tspan>
<tspan x="10" y="74">  ├─┬ connect@3.6.0 </tspan>
<tspan x="10" y="90">  │ ├─┬ debug@2.6.1 </tspan>
<tspan x="10" y="106">  │ │ └── ms@0.7.2 </tspan>
<tspan x="10" y="122">  │ ├─┬ finalhandler@1.0.0 </tspan>
<tspan x="10" y="138">  │ │ ├── statuses@1.3.1 </tspan>
<tspan x="10" y="154">  │ │ └── unpipe@1.0.0 </tspan>
<tspan x="10" y="170">  │ ├── parseurl@1.3.1 </tspan>
<tspan x="10" y="186">  │ └── utils-merge@1.0.0 </tspan>
<tspan x="10" y="202">  ├── connect-livereload@0.5.4 </tspan>
<tspan x="10" y="218">  ├── http2@3.3.6 </tspan>
<tspan x="10" y="234">  ├─┬ morgan@1.8.1 </tspan>
<tspan x="10" y="250">  │ ├── basic-auth@1.1.0 </tspan>
<tspan x="10" y="266">  │ ├── depd@1.1.0 </tspan>
<tspan x="10" y="282">  │ ├─┬ on-finished@2.3.0 </tspan>
<tspan x="10" y="298">  │ │ └── ee-first@1.1.1 </tspan>
<tspan x="10" y="314">  │ └── on-headers@1.0.1 </tspan>
<tspan x="10" y="330">  ├─┬ opn@4.0.2 </tspan>
<tspan x="10" y="346">  │ ├── object-assign@4.1.1 </tspan>
<tspan x="10" y="362">  │ └─┬ pinkie-promise@2.0.1 </tspan>
<tspan x="10" y="378">  │   └── pinkie@2.0.4 </tspan>
<tspan x="10" y="394">  ├── portscanner@1.2.0 </tspan>
<tspan x="10" y="410">  ├─┬ serve-index@1.8.0 </tspan>
<tspan x="10" y="426">  │ ├─┬ accepts@1.3.3 </tspan>
<tspan x="10" y="442">  │ │ └── negotiator@0.6.1 </tspan>
<tspan x="10" y="458">  │ ├── batch@0.5.3 </tspan>
<tspan x="10" y="474">  │ ├─┬ debug@2.2.0 </tspan>
<tspan x="10" y="490">  │ │ └── ms@0.7.1 </tspan>
<tspan x="10" y="506">  │ ├── escape-html@1.0.3 </tspan>
<tspan x="10" y="522">  │ ├─┬ http-errors@1.5.1 </tspan>
<tspan x="10" y="538">  │ │ ├── inherits@2.0.3 </tspan>
<tspan x="10" y="554">  │ │ └── setprototypeof@1.0.2 </tspan>
<tspan x="10" y="570">  │ └─┬ mime-types@2.1.15 </tspan>
<tspan x="10" y="586">  │   └── mime-db@1.27.0 </tspan>
<tspan x="10" y="602">  └─┬ serve-static@1.12.1 </tspan>
<tspan x="10" y="618">    ├── encodeurl@1.0.1 </tspan>
<tspan x="10" y="634">    └─┬ send@0.15.1 </tspan>
<tspan x="10" y="650">      ├── destroy@1.0.4 </tspan>
<tspan x="10" y="666">      ├── etag@1.8.0 </tspan>
<tspan x="10" y="682">      ├── fresh@0.5.0 </tspan>
<tspan x="10" y="698">      ├─┬ http-errors@1.6.1 </tspan>
<tspan x="10" y="714">      │ └── setprototypeof@1.0.3 </tspan>
<tspan x="10" y="730">      ├── mime@1.3.4 </tspan>
<tspan x="10" y="746">      └── range-parser@1.2.0</tspan>
</text>
</svg>
